<svg xmlns="http://www.w3.org/2000/svg" viewBox="0 0 64 64">
<defs><linearGradient id="g" x1="0" y1="0" x2="1" y2="1">
<stop offset="0" stop-color="#9FC0FF"/><stop offset="0.55" stop-color="#B79BFF"/><stop offset="1" stop-color="#FF9AC4"/>
</linearGradient></defs>
<rect width="64" height="64" rx="15" fill="#0A0D15"/>
<rect x="1.5" y="1.5" width="61" height="61" rx="13.5" fill="none" stroke="rgba(147,180,255,0.18)"/>
<path d="M19 24 L12 6 L29 16 Z" fill="url(#g)"/>
<path d="M45 24 L52 6 L35 16 Z" fill="url(#g)"/>
<path d="M16 27 C16 17 24 13 32 13 C40 13 48 17 48 27 C48 41 41 53 32 53 C23 53 16 41 16 27 Z" fill="url(#g)"/>
<ellipse cx="25" cy="31" rx="4.8" ry="6.6" transform="rotate(-20 25 31)" fill="#0A0D15"/>
<ellipse cx="39" cy="31" rx="4.8" ry="6.6" transform="rotate(20 39 31)" fill="#0A0D15"/>
<circle cx="26.7" cy="28.3" r="1.6" fill="#fff"/>
<circle cx="40.7" cy="28.3" r="1.6" fill="#fff"/>
<path d="M30.4 40 Q32 41.7 33.6 40" fill="none" stroke="#0A0D15" stroke-width="1.6" stroke-linecap="round"/>
<g stroke="#0A0D15" stroke-width="1.3" stroke-linecap="round" opacity="0.5">
<path d="M17 37 L23 37.5"/><path d="M17 41 L23 40"/><path d="M47 37 L41 37.5"/><path d="M47 41 L41 40"/>
</g></svg>